<?xml version="1.0" encoding="UTF-8"?>
<svg id="Calque_1" xmlns="http://www.w3.org/2000/svg" version="1.1" viewBox="0 0 252 144">
  <!-- Generator: Adobe Illustrator 30.3.0, SVG Export Plug-In . SVG Version: 2.1.3 Build 182)  -->
  <defs>
    <style>
      .st0 {
        fill: #95c13b;
      }

      .st1 {
        fill: #24336a;
      }
    </style>
  </defs>
  <g>
    <g>
      <path class="st0" d="M88.88,106.51l1.4-.11c5.42-.42,10.45-2.73,14.7-6.21l-1.34-1.61c-.3-.36-.57-.14-.85.08-3.47,2.73-7.57,4.59-11.99,5.09-1.34.15-2.2-1.33-2.03-2.46l-.09-2.07-.03-7.29c0-.64.72-.75,1.19-.82,2.06-.31,3.9-1.21,5.49-2.47.56-.44,1.15-.21,1.61.26l4.52,4.66,2.71,2.84,2.19,2.28.56.66c.24.28.39.57.37.9s-.2.65-.51.93c-4.7,4.05-10.32,6.7-16.56,7.19h-4.67c-6.21-.51-11.93-3.06-16.58-7.17l-3.11-3.11c-4.45-5.11-6.95-11.45-7.31-18.23-.45-8.57,2.52-16.6,8.4-22.81,6.9-7.27,16.98-10.49,26.82-8.45.2.04.4-.18.29-.34-6.18-7.86-5.19-17.64.81-25.48.85,1.54,1.6,2.96,2.8,4.16l2.7,2.7,3.7,3.2c4.23,3.65,6.05,8.51,5.69,14.08-.2,3.13-.98,6.13-2.27,8.99-.35.77-.76,1.45-1.34,2.05l-3.2,3.29-2.85,2.97-3.4,3.48c-.41.42-1,.37-1.43.02-1.7-1.38-3.67-2.22-5.84-2.53-.42-.06-.81-.37-.8-.83l.09-5.45.13-4.46c.04-1.26,1.31-1.9,2.5-1.72,4.37.65,8.57,2.52,12,5.35.68-.56,1.15-1.14,1.72-1.9-12.38-10.21-30.46-7.57-39.5,5.55-2.87,4.16-4.63,8.83-5.01,13.89v5.2c.29,3.62,1.29,6.96,2.89,10.21,2.66,5.39,6.95,9.65,12.26,12.49,4.05,2.16,8.58,3.15,13.17,3.01ZM97.2,35.41c2.58,6.03,5.55,11.81,9.3,17.54,1.22-3.04,1.56-6.13,1.28-9.19s-1.4-5.67-3.37-7.89c-2.86-3.22-6.31-4.91-9.3-9.09-.13-.18-.4-.17-.53-.09s-.15.23-.23.39c-1.43,2.61-2.33,5.36-2.5,8.34-.26,4.43,1.1,8.66,4.02,11.96,1.07,1.21,2.15,2.27,3.57,3.08,1.58.56,2.79,1.53,4.54,2.34-2.3-4.21-4.32-8.37-5.72-12.91-.47-1.52-.91-2.9-1.06-4.48ZM96.07,60.09l-1.84,4.48,1.6.96c.36.21.75-.47.98-.71l3.59-3.71,1.58-1.68c-3.21-2.58-6.98-4.19-11.01-4.82-.18.12-.29.51-.29.7l-.04,5.4c0,.76-.38,1.74.02,2.44.29.52,1.29.58,1.84.48l1.92-4.48c.21-.5.88-.65,1.31-.35.41.27.57.75.35,1.3ZM90.59,97.08l.1,4.73c2.49-.3,4.78-1.09,6.97-2.2,1.52-.77,2.95-1.58,4.2-2.77l-1.58-1.68-2.56-2.7-1.75-1.81-1.55.97c-.22.14-.08.54,0,.73l1.55,3.87c.24.6.13,1.13-.47,1.41-.41.19-1.02.03-1.24-.51l-1.69-4.12c-.06-.15-.2-.43-.4-.38l-1.66.46.09,3.99Z"/>
      <path class="st0" d="M112.12,59.23c3.66.17,6.95-.78,9.55-3.23,1.38-1.3,2.17-2.98,3.11-4.6l2.39-4.13c-1.22-.53-2.48-.48-3.77-.52-2.28-.07-4.44.38-6.52,1.35-2.38,1.11-4.16,2.99-5.44,5.24-.27.48-1.07.35-1.34.07-.42-.43-.38-.88-.1-1.37,4.15-7.26,12.86-8.82,20.58-5.82-1.94,1.96-3.15,4.1-4.29,6.43-.91,1.85-2.01,3.49-3.51,4.87-4.33,4.09-10.38,4.5-16,2.68,2.8-3.2,6.04-5.68,9.66-7.64,1.6-.87,3.16-1.55,4.92-1.99-3.92,2.37-7.59,5.05-10.92,8.36.48.38,1.04.26,1.67.29Z"/>
      <path class="st0" d="M73.92,91.47l-2.72,2.63c-.87.84-2.27.73-3.03-.27-2.66-3.47-4.26-7.56-4.98-11.88-.12-.74-.12-1.31.32-1.96.33-.49.99-.91,1.72-.9,1.27.02,2.47-.05,3.73-.06l5.87-.06c.35,0,.54.61.58.89.33,2.28,1.1,4.36,2.49,6.17.28.37.39.72.29,1.19-.07.34-.42.55-.73.85l-3.54,3.41ZM75.04,85.16c-.12-.2-.42-.19-.58-.13l-3.83,1.59c-.36.15-.75.27-1.17.08s-.71-1.3-.19-1.54l4.8-2.15-.48-2.01c-.06-.26-.38-.1-.53-.1l-4.52.11-3.47.12c.52,4.09,2.08,7.92,4.43,11.22.12.17.28.24.41.25s.21-.08.31-.18l3.42-3.33,2.36-2.32-.95-1.62Z"/>
      <path class="st0" d="M75.38,76.58c-.06.51-.35.88-.83.87l-3.29-.07-3.67-.12c-.8-.03-1.56-.07-2.36-.08-1.32,0-2.3-1.07-2.11-2.36.67-4.55,2.31-8.82,5.13-12.43.66-.84,1.99-.95,2.73-.25l2.56,2.44,3.18,3.03,1.42,1.41c.16.16.14.78,0,.95-1.48,1.93-2.46,4.12-2.76,6.61ZM69.74,71.42c-.64-.27-.85-.7-.7-1.32.12-.47.74-.76,1.28-.54l4.61,1.92c.36-.73.64-1.25,1.05-1.87l-2.41-2.37-3.29-3.19c-.17-.16-.29-.28-.51-.26-.47.04-1.61,2.14-2.18,3.22-1.31,2.51-2.15,5.17-2.5,8.03.41.23.87.26,1.35.27l3.7.08,3.43.07.49-2.17-4.33-1.86Z"/>
      <path class="st0" d="M80.28,67.83c-.27.22-.91.29-1.14.05l-2.53-2.6-2.71-2.83-1.4-1.44c-.92-.94-.94-2.31.08-3.14,3.36-2.73,7.39-4.49,11.69-5.16.74-.11,1.38.05,1.91.47s.75,1.03.77,1.78l.11,5.28.04,4.23c0,.4-.63.69-.97.74-2.19.32-4.09,1.2-5.84,2.62ZM79.55,60.04c-.25-.6.1-1.23.63-1.36.69-.17,1,.25,1.25.83l1.83,4.37,1.88-.61-.08-4.95-.12-3.75c-3.96.52-7.6,2.17-10.77,4.48-.18.13-.29.35-.3.48,0,.16.12.26.25.38l3,3.08,2.33,2.41c.19.2.48.23.71.07l1.27-.88-1.88-4.57Z"/>
      <path class="st0" d="M85.42,103.63c-1.19.22-2.36-.14-3.47-.43-3.3-.87-6.24-2.38-8.91-4.47-.56-.43-.94-.81-1.08-1.47s.06-1.32.56-1.85l1.39-1.45,2.23-2.37,2.51-2.74c.3-.32.63-.55.98-.58.48-.05.69.24,1.05.53,1.5,1.2,3.31,2.02,5.24,2.3.66.1,1.23.31,1.21,1.11l-.07,3.69-.12,5.42c-.02.97-.35,2.09-1.53,2.31ZM85.07,98.16l.1-4.45c0-.15.18-.5-.01-.62-.55-.33-1.24-.48-1.94-.53l-1.99,4.68c-.22.52-.98.57-1.37.28-.46-.36-.46-.83-.24-1.37l1.8-4.52-1.63-1.07-1.29,1.37-1.79,1.87-2.33,2.44c-.16.17-.51.59-.33.76,1.06.98,2.27,1.64,3.52,2.34,2.28,1.28,4.78,2.12,7.42,2.39l.09-3.59Z"/>
    </g>
    <g>
      <path class="st0" d="M105.88,82.3c1.33,2.4,3.64,3.74,6.29,3.79s5.1-1.29,6.46-3.6c.41.17.71.37,1.02.68-1.63,3.17-4.76,4.9-8.29,4.87-3.95-.03-7.5-2.2-8.94-5.95-.97-2.53-1.03-5.34-.14-7.91,1.27-3.66,4.58-6.01,8.39-6.4,3.17-.32,6.18.51,8.55,2.69l-1.01,3.33c-.05.15-.52.16-.59-.01-.61-1.49-1.46-2.9-2.91-3.74-3.05-1.76-7.22-.68-8.93,2.66-1.53,2.99-1.55,6.59.1,9.58Z"/>
      <path class="st0" d="M133.6,74.06l.03,9.07c0,1.62.25,3.1.67,4.57h-2.16s-.96-2.37-.96-2.37c-.98,1.89-2.71,2.83-4.82,2.67s-3.7-1.72-3.92-3.89l-.08-4.35-.15-5.21,2.64-.48.08,1.41.08,7.65c.01.94.43,1.96,1.25,2.43,1.37.79,3.2.41,4.18-.79.43-.53.6-1.22.6-1.91v-8.33s2.58-.48,2.58-.48Z"/>
      <path class="st0" d="M169.95,76.53c-1.46-1.1-3.71-.62-4.68.85-.47.71-.46,1.59-.46,2.4l-.05,7.9h-2.53s-.02-9.36-.02-9.36c0-1.42-.29-2.7-.66-4.09l2.21-.09.89,2.39c1.05-1.87,2.75-2.72,4.73-2.65,2.27.08,4.04,1.66,4.06,4l.05,6.47c0,1.12.1,2.14.37,3.32l-2.55.02c-.3-1.1-.39-2.18-.4-3.33l-.04-5.67c0-.76-.24-1.64-.93-2.16Z"/>
      <path class="st0" d="M187.95,83.33l.9.52c-1.24,2.82-3.35,4.32-6.5,4.14-2.14-.12-4-1.27-5.07-3.17-1.38-2.46-1.28-5.62.21-7.99,1.28-2.01,3.35-3.01,5.68-2.94,3.3.1,5.3,2.48,5.51,5.64l-9.56,1.92c.4,3.06,2.84,5,5.82,4.32,1.34-.31,2.38-1.12,3-2.42ZM185.78,78.71c-.2-1.24-.61-2.14-1.4-2.88-1.48-1.08-3.5-.63-4.51.91-.66,1-.93,2.19-.83,3.4l6.74-1.43Z"/>
      <path class="st0" d="M198.58,87.45c-2.38,1.12-6,.61-7.93-1.35l1.14-2.33c.26-.53.61.72,1.33,1.62,1.1,1.37,3.13,1.83,4.63.84.62-.41.76-1.19.65-1.91-.09-.56-.48-1.22-1.14-1.48l-2.53-.98c-1.02-.4-2.06-.82-2.81-1.65-.82-.9-1.01-2.16-.68-3.4.27-1,1.1-1.99,2.25-2.44,2.26-.89,4.89-.56,6.77,1.05l-1.11,2.32c-.11.22-.59-.17-.54-.39-.64-1.62-2.2-2.5-3.86-2.01-.74.21-1.25.77-1.36,1.39-.48,2.68,3.53,2.62,5.81,4.18,1.01.69,1.53,1.69,1.57,2.9.06,1.58-.75,2.96-2.19,3.63Z"/>
      <path class="st0" d="M150.86,87.36c-2.28,1.23-6.14.76-8.13-1.26l1.03-2.08c.54-1.08.61.87,2.15,2.04,1.1.83,2.69.95,3.86.22.64-.4.82-1.12.75-1.83-.06-.62-.46-1.32-1.16-1.59l-2.82-1.1c-.94-.36-1.85-.76-2.53-1.53-.81-.91-1-2.17-.67-3.41.26-.97,1.05-1.94,2.15-2.41,2.28-.95,4.95-.6,6.84,1.02l-1.1,2.37c-.33.06-.49-.31-.58-.53-.66-1.57-2.19-2.39-3.81-1.94-.79.22-1.32.82-1.4,1.57s.21,1.56.97,1.88l2.29.96c.8.34,1.61.56,2.35,1.01,1.02.61,1.67,1.6,1.78,2.77.15,1.63-.54,3.05-1.99,3.83Z"/>
      <polygon class="st0" points="158.33 87.66 155.76 87.71 155.76 74.56 158.33 74.01 158.33 87.66"/>
      <polygon class="st0" points="140.01 87.68 137.43 87.7 137.41 74.57 139.99 74.06 140.01 87.68"/>
      <circle class="st0" cx="138.7" cy="70.05" r="1.7"/>
      <circle class="st0" cx="157.01" cy="70.05" r="1.7"/>
    </g>
    <g>
      <path class="st1" d="M154.76,101.72l.04,7.99c0,.45.21.95.44,1.15.36.31.8.32,1.33.24.14.22.13.52.05.81h-6.52c-.08-.23-.07-.4-.03-.57.07-.36,1.88.02,1.87-1.46l-.03-7.76c0-1.38-1.13-2.15-2.43-2-1.1.13-2.01.8-2.71,1.66l.04,8.08c0,.78.58,1.34,1.34,1.27.27-.03.44.03.52.22s.05.56-.26.56h-6.22c-.19-.02-.15-.71.04-.73.5-.05.89-.06,1.23-.37.32-.28.49-.71.49-1.25v-7.87c0-.47-.16-1.15-.54-1.33-.41-.19-.87-.04-1.27-.1-.08-.27-.08-.48,0-.73l3.72-1.28c.27-.09.52-.14.82-.08l.05,1.41c0,.14.11.28.18.31.38.17,1.41-1.54,3.68-1.76,1.68-.16,3.11.63,3.83,2.24l1.41-1.08c1.02-.78,2.13-1.23,3.45-1.16,2.07.11,3.43,1.83,3.45,3.67l.09,8.03c0,.41.23.84.44,1.03.3.27.73.3,1.16.27.33-.02.36.75.15.75h-6.35c-.24-1.15.68-.46,1.47-1.12.26-.22.27-.63.29-.99l.09-1.51v-5.38s-.14-1.06-.14-1.06c-.17-1.22-1.21-1.86-2.44-1.69-1.04.14-1.89.8-2.69,1.57Z"/>
      <path class="st1" d="M132.12,106.5c.34-.08.7,0,1.01.19l-1.33,5.23h-15.67c-.18,0-.23-.64-.08-.73l1.34-.25c.59-.11,1.16-.61,1.16-1.31v-15.09c0-.7-.58-1.2-1.15-1.31l-1.3-.23c-.19-.03-.15-.74.05-.74l8.21-.03c.27,0,.31.4.26.58-.14.53-1.6.12-2.25.8-.4.42-.53,1.16-.53,1.78l-.05,13.84c0,.38.24.96.59,1.04,1.69.39,3.37.16,5.09.11,2.74-.07,3.77-1.29,4.67-3.87Z"/>
      <path class="st1" d="M197.96,112.2c-1.47-.16-2.63-1.42-2.74-2.8-.09-1.14.1-2.16.85-2.96,1.57-1.71,4.05-2.47,6.3-3.33.09-.72.06-1.45-.06-2.15-.17-1.04-.9-1.66-1.96-1.64-.74.01-1.59.21-1.86,1.03l-.08,1.8c-.03.53-.71.77-1.12.84-.51.09-1.08-.08-1.38-.52-.51-.76-.27-1.72.27-2.43,1.06-1.39,2.72-1.91,4.46-1.9,1.19,0,2.33.17,3.27.93.71.58,1.26,1.4,1.27,2.37l.06,6.98c0,.52-.06,1.2.29,1.6.42.48,1.08.03,1.48-.24.3-.09.4.41.4.59,0,.51-1.65,2.31-3.58,1.72-.73-.23-1.07-.92-1.28-1.71-1.51,1.06-2.44,2.05-4.57,1.82ZM202.41,108.84l-.02-4.48c-.38-.08-.62.2-.91.31-.93.36-1.74.8-2.47,1.45-1.18,1.06-1.07,2.91-.29,3.6,1.1.97,2.72.4,3.69-.88Z"/>
      <path class="st1" d="M175.86,108.19l.84-1.25c.32.08.53.24.77.44-1.18,3.24-3.41,5.29-7.01,4.83-1.63-.2-2.94-1.14-3.87-2.49-.87-1.26-1.13-2.73-1.13-4.28,0-2.22.71-4.38,2.36-5.86,2.27-2.03,6.16-2.02,8.08.44.89,1.14,1.24,2.59,1.18,4.05h-9.07c.03,2.8,1.38,5.62,4.2,5.74,1.45.06,2.81-.35,3.65-1.62ZM173.85,102.72c-.06-.8-.26-1.32-.51-1.91-.42-.76-1.17-1.28-2.1-1.29-1.75-.03-3.1,1.47-3.1,3.24l5.71-.04Z"/>
      <path class="st1" d="M193.72,109.42c.21.06.55.23.61.4.12.3-.21.51-.37.75-1.03,1.54-3.15,2.25-4.77,1.14-.62-.42-1.07-1.46-1.08-2.23l-.07-9.58c-.59-.03-1.17.09-1.73-.16-.2-.09-.2-.61,0-.73,1.12-.7,2.04-1.56,2.75-2.66l1.12-1.73c.09-.14.52-.13.66-.06l.06,3.85,2.88.08c.1.44.08.85.04,1.3l-2.93.08v8.96c0,.6.41,1.32.95,1.48.76.23,1.41-.27,1.88-.87Z"/>
      <path class="st1" d="M184.17,110.32c.63-.1.91-.5,1.31-.85.22-.19.74.26.65.53-.14.45-.46.69-.76,1.03-1.06,1.2-2.9,1.62-4.29.7-.82-.55-1.19-1.59-1.2-2.59l-.07-9.2-1.65-.19c-.16-.03-.12-.5-.09-.66.04-.18,2.24-1.31,3.8-4.4.09-.18.43-.23.74-.16l.07,3.87,2.91.06v1.33s-2.93.07-2.93.07v8.31s.16,1.17.16,1.17c.09.62.67,1.1,1.35,1Z"/>
      <path class="st1" d="M134.27,111.93c-.08-.32-.06-.58-.02-.7.05-.14,1.99.06,1.99-1.48v-8.43c-.01-.35-.23-.69-.39-.85-.39-.38-1.25,0-1.59-.28-.12-.09-.1-.5.08-.56l2.73-.92c.63-.21,1.16-.54,1.97-.59l.05,11.74c0,1.44,1.67,1.18,1.91,1.42.11.11.13.61-.06.61l-6.68.03Z"/>
      <path class="st1" d="M137.31,95.4c-.96-.17-1.49-.86-1.5-1.65,0-.87.56-1.59,1.51-1.68,1.06-.09,1.91.69,1.91,1.68s-.85,1.83-1.92,1.65Z"/>
    </g>
  </g>
  <g id="Calque_2">
    <path class="st1" d="M103.44,105.65l1.49-1.02,11.15,15.24c.2.27.12.68,0,.9-.11.19-.31.46-.71.46H45.52c-.51,0-.91-.32-.91-.83V24.92c0-.53.14-.78.55-.97.32-.14.76-.05,1.07.35l21.98,29.42c-.57.34-.88.76-1.37,1.17l-20.44-27.28v91.83s67.12,0,67.12,0l-10.07-13.79Z"/>
    <path class="st1" d="M69.58,103.77l2.55,1.78h-11.47c-.44,0-.74-.58-.74-.95v-12.74s1.77,3.21,1.77,3.21v8.69s7.89.01,7.89.01Z"/>
    <path class="st1" d="M51.72,45.09h-4.1c-.1,0-.14-.2-.1-.26.06-.09.12-.12.3-.12h3.93c.08.03.06.39-.02.39Z"/>
    <rect class="st1" x="47.52" y="51.18" width="4.26" height=".43" transform="translate(-.16 .15) rotate(-.18)"/>
    <path class="st1" d="M51.74,64.53h-3.93c-.21,0-.41-.11-.35-.38h4.29c.03.09.04.19,0,.38Z"/>
    <path class="st1" d="M51.75,58.08l-4.13-.03c-.09,0-.17-.3-.1-.36l4.23-.02c.03.09.05.18,0,.41Z"/>
    <rect class="st1" x="96.15" y="114.3" width=".4" height="4.18"/>
    <rect class="st1" x="55.29" y="116.21" width="4.2" height=".38" transform="translate(-59.06 173.69) rotate(-89.95)"/>
    <rect class="st1" x="61.78" y="116.21" width="4.2" height=".38" transform="translate(-52.66 180.03) rotate(-89.88)"/>
    <rect class="st1" x="70.17" y="114.3" width=".4" height="4.19" transform="translate(-.27 .17) rotate(-.13)"/>
    <rect class="st1" x="74.76" y="116.2" width="4.2" height=".39" transform="translate(-39.58 193.2) rotate(-89.97)"/>
    <rect class="st1" x="81.26" y="116.2" width="4.2" height=".4" transform="translate(-33.08 199.7) rotate(-89.97)"/>
    <rect class="st1" x="89.65" y="114.3" width=".4" height="4.19" transform="translate(-.43 .34) rotate(-.21)"/>
    <path class="st1" d="M51.78,70.88c-.08.25-2.38.08-3.97.14-.21,0-.42-.11-.36-.39h4.28s.05.21.04.26Z"/>
    <path class="st1" d="M51.78,103.35l-4.22.02c-.09,0-.14-.18-.1-.23.05-.06.15-.17.26-.17l3.87.03c.14,0,.27.11.19.35Z"/>
    <path class="st1" d="M51.77,38.61h-3.98c-.12,0-.21-.02-.25-.04-.09-.05-.05-.34.09-.34l4.09.03c.05,0,.14.18.05.36Z"/>
    <rect class="st1" x="47.44" y="83.58" width="4.35" height=".37" transform="translate(-.16 .1) rotate(-.11)"/>
    <rect class="st1" x="47.45" y="90.05" width="4.33" height=".38"/>
    <rect class="st1" x="49.43" y="75.11" width=".37" height="4.34" transform="translate(-27.77 126.74) rotate(-89.89)"/>
    <path class="st1" d="M51.64,96.89h-4.08c-.09,0-.13-.12-.12-.17,0-.07.09-.2.22-.2l4.04.02c.12,0,.15.34-.07.34Z"/>
    <path class="st1" d="M51.72,108.52h-4.05c-.14,0-.22-.08-.22-.17,0-.08.09-.17.23-.17h3.89c.13,0,.17.05.21.07s.05.26-.06.26Z"/>
  </g>
</svg>